<?xml version="1.0" encoding="iso-8859-1"?>
<!-- Generator: Adobe Illustrator 19.0.0, SVG Export Plug-In . SVG Version: 6.00 Build 0)  -->
<svg version="1.1" id="Layer_1" xmlns="http://www.w3.org/2000/svg" xmlns:xlink="http://www.w3.org/1999/xlink" x="0px" y="0px"
	 viewBox="0 0 511.996 511.996" style="enable-background:new 0 0 511.996 511.996;" xml:space="preserve">
<g>
	<g>
		<path d="M511.157,252.303L408.757,38.97c-1.425-2.953-4.412-4.838-7.689-4.838H110.935c-3.285,0-6.272,1.886-7.697,4.838
			L0.838,252.303c-1.118,2.338-1.118,5.052,0,7.39l102.4,213.333c1.425,2.953,4.412,4.838,7.697,4.838h290.133
			c3.277,0,6.263-1.886,7.689-4.838l102.4-213.333C512.275,257.355,512.275,254.641,511.157,252.303z M395.693,460.798h-279.39
			l-98.304-204.8l98.304-204.8h279.39l98.304,204.8L395.693,460.798z"/>
	</g>
</g>
<g>
</g>
<g>
</g>
<g>
</g>
<g>
</g>
<g>
</g>
<g>
</g>
<g>
</g>
<g>
</g>
<g>
</g>
<g>
</g>
<g>
</g>
<g>
</g>
<g>
</g>
<g>
</g>
<g>
</g>
</svg>
